<?xml version="1.0" encoding="utf-8"?>
<!-- Generator: Adobe Illustrator 24.0.0, SVG Export Plug-In . SVG Version: 6.00 Build 0)  -->
<svg version="1.1" id="Capa_1" xmlns="http://www.w3.org/2000/svg" xmlns:xlink="http://www.w3.org/1999/xlink" x="0px" y="0px"
	 viewBox="0 0 72.87 75.46" style="enable-background:new 0 0 72.87 75.46;" xml:space="preserve">
<style type="text/css">
	.st0{fill-rule:evenodd;clip-rule:evenodd;fill:#FBB905;}
</style>
<path class="st0" d="M24.6,22.49c2.29,0,4.44-0.22,6.38-0.81c2.46-0.74,4.62-2.09,6.32-4.34l2.05-2.71l1.85,2.85
	c1.29,1.99,2.88,3.35,4.71,4.17c1.22,0.55,2.57,0.87,4.03,0.99c-0.54-3-1.83-5.68-3.63-7.75c-2.33-2.68-5.54-4.34-9.05-4.34
	s-6.72,1.66-9.05,4.34C26.43,16.93,25.15,19.55,24.6,22.49L24.6,22.49z M50.13,27.43c-0.33,3.61-1.73,6.84-3.83,9.25
	c-0.74,0.85-1.58,1.6-2.48,2.23c-0.26,0.06-0.51,0.16-0.75,0.31c-0.93,0.59-1.93,1.05-2.97,1.35c-0.94,0.28-1.94,0.43-2.98,0.45
	c-3.46-0.04-6.61-1.69-8.92-4.34c-2.13-2.45-3.55-5.75-3.85-9.43c2.81,0.02,5.5-0.25,7.98-1c2.49-0.75,4.76-1.96,6.72-3.78
	c1.44,1.55,3.08,2.71,4.9,3.53C45.85,26.85,47.92,27.31,50.13,27.43L50.13,27.43z M37.25,5.78c4.96,0,9.43,2.29,12.65,5.98
	c3.14,3.6,5.08,8.56,5.08,14.02c0,5.46-1.94,10.42-5.08,14.02c-0.95,1.09-2.02,2.07-3.17,2.89v4.9h0.22c5.72,0,10.93,2.34,14.7,6.11
	c3.77,3.77,6.11,8.97,6.11,14.7c0,1.32-1.07,2.39-2.39,2.39H9.11c-1.32,0-2.39-1.07-2.39-2.39c0-5.72,2.34-10.93,6.11-14.7
	c3.77-3.77,8.97-6.11,14.7-6.11h0.22v-4.92c-1.14-0.82-2.2-1.79-3.15-2.87c-3.14-3.6-5.08-8.56-5.08-14.02
	c0-5.46,1.94-10.42,5.08-14.02C27.82,8.07,32.29,5.78,37.25,5.78L37.25,5.78z M41.95,45.08c-1.5,0.46-3.07,0.71-4.71,0.71l-0.13,0
	l-0.17,0c-1.41,0-2.79-0.19-4.12-0.55l-0.31-0.09v4.83c0,1.32-1.07,2.39-2.39,2.39h-2.61c-4.41,0-8.41,1.8-11.32,4.71
	c-2.37,2.37-4.01,5.48-4.53,8.93H62.8c-0.52-3.46-2.16-6.56-4.53-8.93c-2.91-2.91-6.92-4.71-11.32-4.71h-2.61
	c-1.32,0-2.39-1.07-2.39-2.39V45.08z"/>
</svg>
