<svg width="23" height="23" viewBox="0 0 23 23" fill="none" xmlns="http://www.w3.org/2000/svg">
<path d="M22.6934 6.60156C20.93 2.64062 16.445 0 11.4617 0C6.51667 0 1.99333 2.64062 0.23 6.60156L0 7.13794H23L22.6934 6.60156ZM6.40167 5.36377C6.09501 5.36377 5.865 5.11621 5.865 4.78613C5.865 4.45605 6.09501 4.20849 6.40167 4.20849C6.70834 4.20849 6.93834 4.45605 6.93834 4.78613C6.93834 5.11621 6.70834 5.36377 6.40167 5.36377ZM8.08834 3.63086C7.78167 3.63086 7.55167 3.3833 7.55167 3.05322C7.55167 2.72314 7.78167 2.47558 8.08834 2.47558C8.39501 2.47558 8.62501 2.72314 8.62501 3.05322C8.62501 3.3833 8.39501 3.63086 8.08834 3.63086ZM9.81334 5.36377C9.50667 5.36377 9.27667 5.11621 9.27667 4.78613C9.27667 4.45605 9.50667 4.20849 9.81334 4.20849C10.12 4.20849 10.35 4.45605 10.35 4.78613C10.3117 5.11621 10.0817 5.36377 9.81334 5.36377ZM11.5 3.63086C11.1933 3.63086 10.9633 3.3833 10.9633 3.05322C10.9633 2.72314 11.1933 2.47558 11.5 2.47558C11.8067 2.47558 12.0367 2.72314 12.0367 3.05322C12.0367 3.3833 11.8067 3.63086 11.5 3.63086ZM13.1867 5.36377C12.88 5.36377 12.65 5.11621 12.65 4.78613C12.65 4.45605 12.88 4.20849 13.1867 4.20849C13.4933 4.20849 13.7233 4.45605 13.7233 4.78613C13.7233 5.11621 13.4933 5.36377 13.1867 5.36377ZM14.9117 3.63086C14.605 3.63086 14.375 3.3833 14.375 3.05322C14.375 2.72314 14.605 2.47558 14.9117 2.47558C15.2183 2.47558 15.4483 2.72314 15.4483 3.05322C15.41 3.3833 15.18 3.63086 14.9117 3.63086ZM16.4067 5.36377C16.1 5.36377 15.87 5.11621 15.87 4.78613C15.87 4.45605 16.1 4.20849 16.4067 4.20849C16.7133 4.20849 16.9433 4.45605 16.9433 4.78613C16.9433 5.11621 16.7133 5.36377 16.4067 5.36377Z" fill="#F9A213"/>
<path d="M22.77 10.2137H0.22995V7.99166L0.34495 7.87471C0.881618 7.40692 1.95495 7.40692 2.49162 7.87471C2.75995 8.10861 3.44995 8.10861 3.71829 7.87471C4.25496 7.40692 5.32829 7.40692 5.86496 7.87471C6.13329 8.10861 6.82329 8.10861 7.09163 7.87471C7.62829 7.40692 8.70163 7.40692 9.2383 7.87471C9.50663 8.10861 10.1966 8.10861 10.465 7.87471C11.0016 7.40692 12.075 7.40692 12.6116 7.87471C12.88 8.10861 13.57 8.10861 13.8383 7.87471C14.375 7.40692 15.4483 7.40692 15.985 7.87471C16.2533 8.10861 16.9433 8.10861 17.2116 7.87471C17.7483 7.40692 18.8216 7.40692 19.3583 7.87471C19.6266 8.10861 20.3166 8.10861 20.585 7.87471C21.1216 7.40692 22.195 7.40692 22.7317 7.87471L22.8467 7.99166V10.2137H22.77Z" fill="#6DCC82"/>
<path d="M22.77 12.9815H0.22995V10.7984H22.8083L22.77 12.9815Z" fill="#FF4A45"/>
<path d="M20.0101 23.0001H2.99005C1.57171 23.0001 0.383377 21.7917 0.383377 20.3103V19.0239H22.6167V20.3103C22.6167 21.8306 21.4667 23.0001 20.0101 23.0001Z" fill="#F9A213"/>
<path d="M20.661 13.4828H2.33898C1.05254 13.4828 0 14.5535 0 15.8621C0 17.1707 1.05254 18.2414 2.33898 18.2414H20.661C21.9475 18.2414 22.961 17.1707 23 15.8621C23 14.5535 21.9475 13.4828 20.661 13.4828ZM3.85932 17.6862H3.2356V13.9587H3.85932V17.6862ZM4.91187 17.6862H4.28814V13.9587H4.91187V17.6862ZM11.3441 17.6862H10.7203V13.9587H11.3441V17.6862ZM12.3576 17.6862H11.7339V13.9587H12.3576V17.6862ZM18.7119 17.6862H18.0882V13.9587H18.7119V17.6862ZM19.7644 17.6862H19.1407V13.9587H19.7644V17.6862Z" fill="#B44031"/>
</svg>
