<svg width="25" height="22" viewBox="0 0 25 22" fill="none" xmlns="http://www.w3.org/2000/svg">
<path fill-rule="evenodd" clip-rule="evenodd" d="M21.2631 0H2.73938C1.23238 0 0 1.23238 0 2.73933V15.4032C0 16.9102 1.23238 18.144 2.73938 18.144H6.13728V20.9803C6.13728 21.4422 6.43239 21.8329 6.87508 21.9599C7.31912 22.0856 7.77545 21.9094 8.01862 21.5173L10.1131 18.144H21.2632C22.7702 18.144 24.0026 16.9102 24.0026 15.4032V2.73933C24.0025 1.23238 22.7701 0 21.2631 0Z" fill="#FF4155"/>
<path fill-rule="evenodd" clip-rule="evenodd" d="M6.75755 4.65072C8.07464 3.33363 10.2292 3.33363 11.5463 4.65072L12.0013 5.10569L12.4576 4.65072C13.7747 3.33363 15.9279 3.33363 17.245 4.65072C18.562 5.96645 18.562 8.12101 17.245 9.4381L12.3442 14.3389C12.1556 14.5274 11.8482 14.5274 11.6597 14.3389L6.75755 9.4381C5.44182 8.12101 5.44182 5.9664 6.75755 4.65072Z" fill="#F9F9F9"/>
<path fill-rule="evenodd" clip-rule="evenodd" d="M2.18601 15.4032V2.73933C2.18601 1.23233 3.41975 0 4.92675 0H2.73938C1.23238 0 0 1.23238 0 2.73933V15.4032C0 16.9102 1.23238 18.144 2.73938 18.144H4.92675C3.41975 18.144 2.18601 16.9102 2.18601 15.4032Z" fill="#BB0011"/>
</svg>
