<svg width="33" height="26" viewBox="0 0 33 26" fill="none" xmlns="http://www.w3.org/2000/svg">
<path d="M23.0429 6.70325C21.2524 2.6813 16.6983 0 11.6382 0C6.61706 0 2.02404 2.6813 0.233543 6.70325L0 7.24789H23.3543L23.0429 6.70325ZM6.50029 5.44639C6.1889 5.44639 5.95535 5.19502 5.95535 4.85986C5.95535 4.5247 6.1889 4.27332 6.50029 4.27332C6.81168 4.27332 7.04522 4.5247 7.04522 4.85986C7.04522 5.19502 6.81168 5.44639 6.50029 5.44639ZM8.21294 3.68679C7.90155 3.68679 7.668 3.43542 7.668 3.10026C7.668 2.76509 7.90155 2.51372 8.21294 2.51372C8.52433 2.51372 8.75787 2.76509 8.75787 3.10026C8.75787 3.43542 8.52433 3.68679 8.21294 3.68679ZM9.96451 5.44639C9.65312 5.44639 9.41958 5.19502 9.41958 4.85986C9.41958 4.5247 9.65312 4.27332 9.96451 4.27332C10.2759 4.27332 10.5094 4.5247 10.5094 4.85986C10.4705 5.19502 10.237 5.44639 9.96451 5.44639ZM11.6772 3.68679C11.3658 3.68679 11.1322 3.43542 11.1322 3.10026C11.1322 2.76509 11.3658 2.51372 11.6772 2.51372C11.9886 2.51372 12.2221 2.76509 12.2221 3.10026C12.2221 3.43542 11.9886 3.68679 11.6772 3.68679ZM13.3898 5.44639C13.0784 5.44639 12.8449 5.19502 12.8449 4.85986C12.8449 4.5247 13.0784 4.27332 13.3898 4.27332C13.7012 4.27332 13.9347 4.5247 13.9347 4.85986C13.9347 5.19502 13.7012 5.44639 13.3898 5.44639ZM15.1414 3.68679C14.83 3.68679 14.5965 3.43542 14.5965 3.10026C14.5965 2.76509 14.83 2.51372 15.1414 2.51372C15.4528 2.51372 15.6863 2.76509 15.6863 3.10026C15.6474 3.43542 15.4139 3.68679 15.1414 3.68679ZM16.6594 5.44639C16.348 5.44639 16.1145 5.19502 16.1145 4.85986C16.1145 4.5247 16.348 4.27332 16.6594 4.27332C16.9708 4.27332 17.2044 4.5247 17.2044 4.85986C17.2044 5.19502 16.9708 5.44639 16.6594 5.44639Z" fill="#F9A213"/>
<path d="M23.1208 10.371H0.233521V8.11477L0.350292 7.99602C0.895227 7.52102 1.9851 7.52102 2.53003 7.99602C2.8025 8.23352 3.50313 8.23352 3.7756 7.99602C4.32053 7.52102 5.4104 7.52102 5.95533 7.99602C6.2278 8.23352 6.92843 8.23352 7.2009 7.99602C7.74583 7.52102 8.8357 7.52102 9.38064 7.99602C9.65311 8.23352 10.3537 8.23352 10.6262 7.99602C11.1711 7.52102 12.261 7.52102 12.8059 7.99602C13.0784 8.23352 13.779 8.23352 14.0515 7.99602C14.5964 7.52102 15.6863 7.52102 16.2312 7.99602C16.5037 8.23352 17.2043 8.23352 17.4768 7.99602C18.0217 7.52102 19.1116 7.52102 19.6565 7.99602C19.929 8.23352 20.6296 8.23352 20.9021 7.99602C21.4471 7.52102 22.5369 7.52102 23.0819 7.99602L23.1986 8.11477V10.371H23.1208Z" fill="#6DCC82"/>
<path d="M23.1208 13.1814H0.233521V10.9647H23.1597L23.1208 13.1814Z" fill="#FF4A45"/>
<path d="M20.3183 23.3544H3.03608C1.59589 23.3544 0.389252 22.1273 0.389252 20.6232V19.3169H22.9651V20.6232C22.9651 22.1669 21.7974 23.3544 20.3183 23.3544Z" fill="#F9A213"/>
<path d="M20.9793 13.6905H2.37502C1.06876 13.6905 0 14.7777 0 16.1065C0 17.4352 1.06876 18.5224 2.37502 18.5224H20.9793C22.2856 18.5224 23.3147 17.4352 23.3543 16.1065C23.3543 14.7777 22.2856 13.6905 20.9793 13.6905ZM3.91878 17.9587H3.28544V14.1737H3.91878V17.9587ZM4.98753 17.9587H4.3542V14.1737H4.98753V17.9587ZM11.5188 17.9587H10.8855V14.1737H11.5188V17.9587ZM12.548 17.9587H11.9147V14.1737H12.548V17.9587ZM19.0001 17.9587H18.3668V14.1737H19.0001V17.9587ZM20.0689 17.9587H19.4355V14.1737H20.0689V17.9587Z" fill="#B44031"/>
<path d="M30.8678 10.6835H32.5852V14.3821H30.8678V10.6835Z" fill="#F4B83F"/>
<path d="M21.973 10.7345H23.6905V14.5607H21.973V10.7345Z" fill="#F4B83F"/>
<path d="M28.6633 10.0458H30.3808V16.0656L30.3295 16.1166C30.3295 16.1166 30.1757 16.3717 29.9194 16.6268C29.5861 16.9839 29.2529 17.2135 28.9453 17.3155L28.6377 17.4175L28.6633 10.0458Z" fill="#F4B83F"/>
<path d="M26.6126 17.6727L26.4332 17.6216V9H28.1506V17.5706L27.9968 17.6216C27.9968 17.6216 27.6636 17.7492 27.2278 17.7492C27.0228 17.7492 26.7921 17.7237 26.6126 17.6727Z" fill="#F4B83F"/>
<path d="M25.5873 17.443C25.5617 17.4175 24.7158 17.0859 24.2031 16.2187L24.1775 16.1677V10.0458H25.8949V17.5706L25.5873 17.443Z" fill="#F4B83F"/>
<path d="M22.9144 24.0813L22.9147 24.0813L22.9129 24.0677L21.7714 15.4739H23.0487C23.6263 17.3004 25.3062 18.5348 27.2278 18.5348C29.1494 18.5348 30.8294 17.3004 31.407 15.4739H32.6785L31.364 24.0628L31.3611 24.0816V24.1006C31.3611 24.3375 31.2614 24.5806 31.0759 24.7651C30.8905 24.9497 30.6456 25.0495 30.4064 25.0495H23.8442C23.6107 25.0495 23.3901 24.9541 23.2003 24.7651C23.0221 24.5878 22.9366 24.3692 22.9144 24.0813Z" fill="#011689" stroke="#011689" stroke-width="0.5"/>
<circle cx="27.2278" cy="21.4971" r="2.3643" fill="white"/>
<path d="M28.1376 21.5743C28.1376 21.3536 28.0125 21.2274 27.7936 21.2117C27.8874 21.2274 28.1532 21.0382 28.1376 20.6913C28.1219 20.4075 27.8874 20.2656 27.4497 20.3129L26.8868 20.3602L26.4334 22.5047L27.2308 22.4416C27.6685 22.4101 27.95 22.1263 28.0594 21.9055C28.075 21.9055 28.1376 21.7793 28.1376 21.5743ZM27.4966 21.7478C27.4809 21.8266 27.4184 21.9528 27.2464 21.9686L27.1057 21.9843L27.1839 21.5901L27.309 21.5743C27.3871 21.5743 27.5278 21.5901 27.4966 21.7478ZM27.6216 20.9278C27.5904 21.1013 27.434 21.1171 27.3559 21.1171L27.2621 21.1328L27.3402 20.7859L27.434 20.7701C27.5122 20.7701 27.6685 20.7544 27.6216 20.9278Z" fill="#011689"/>
<path d="M28.3252 22.82L26.9494 22.9462L26.9807 22.7254L28.3721 22.5992L28.3252 22.82Z" fill="#F4B83F"/>
<path d="M27.481 20.0132L26.2146 20.1236L26.2459 19.9186L27.5279 19.8082L27.481 20.0132Z" fill="#E71D1D"/>
</svg>
