<svg xmlns="http://www.w3.org/2000/svg" width="83.803" height="56.494" viewBox="0 0 83.803 56.494"><path d="M18.064,55.494a7.542,7.542,0,0,1-7.247-6.161L5.695,19.193a6.326,6.326,0,0,1-.087-1.015A6.725,6.725,0,0,1,0,11.542v-4.8A6.732,6.732,0,0,1,6.7,0H76.114A6.726,6.726,0,0,1,82.8,6.745v4.8a6.727,6.727,0,0,1-5.6,6.636,5.883,5.883,0,0,1-.093,1.015l-5.123,30.14a7.542,7.542,0,0,1-7.248,6.161ZM17,48.269a1.288,1.288,0,0,0,1.061.906H64.738a1.3,1.3,0,0,0,1.067-.906l5.1-29.977-59-.005ZM6.274,6.745v4.8a.434.434,0,0,0,.422.426H76.114a.429.429,0,0,0,.416-.426v-4.8a.434.434,0,0,0-.416-.426H6.7A.439.439,0,0,0,6.274,6.745ZM52.065,41.082v-15.5a3.138,3.138,0,1,1,6.276,0v15.5a3.138,3.138,0,1,1-6.276,0Zm-13.8,0v-15.5a3.137,3.137,0,1,1,6.273,0v15.5a3.137,3.137,0,1,1-6.273,0Zm-13.8,0v-15.5a3.137,3.137,0,1,1,6.274,0v15.5a3.137,3.137,0,1,1-6.274,0Z" transform="translate(0.5 0.5)" fill="#e10b19" stroke="rgba(0,0,0,0)" stroke-width="1"/></svg>