<svg xmlns="http://www.w3.org/2000/svg" width="37.627" height="37.627" viewBox="0 0 37.627 37.627"><path d="M1008.942,432.7l-6.143-6.143a1.154,1.154,0,0,0-1.632,0l-26.1,26.1c-.011.011-.014.025-.024.036a1.142,1.142,0,0,0-.2.3c-.011.025-.026.048-.035.073s-.014.026-.02.041l-3.07,9.214a1.154,1.154,0,0,0,1.46,1.46l9.213-3.071c.01,0,.019-.011.029-.015a1.1,1.1,0,0,0,.208-.1c.011-.006.022-.01.032-.017a1.119,1.119,0,0,0,.181-.146l21.5-21.5h0l4.606-4.606A1.153,1.153,0,0,0,1008.942,432.7Zm-34.309,28.166,1.75-5.251,3.5,3.5Zm28.887-24.376-4.51-4.51,2.975-2.974,4.509,4.51Z" transform="translate(-971.654 -426.218)" fill="#fff"/></svg>