<?xml version="1.0" encoding="utf-8"?>
<!-- Generator: Adobe Illustrator 24.0.0, SVG Export Plug-In . SVG Version: 6.00 Build 0)  -->
<svg version="1.1" id="Capa_1" xmlns="http://www.w3.org/2000/svg" xmlns:xlink="http://www.w3.org/1999/xlink" x="0px" y="0px"
	 viewBox="0 0 16.06 14.21" style="enable-background:new 0 0 16.06 14.21;" xml:space="preserve">
<style type="text/css">
	.st0{fill-rule:evenodd;clip-rule:evenodd;fill:#FFFFFF;}
</style>
<path class="st0" d="M2.19,8.26c-1.44-1.69-1.55-3.47-0.9-4.88C1.55,2.8,1.94,2.3,2.42,1.89c0.47-0.4,1.03-0.7,1.64-0.87
	c1.25-0.36,2.69-0.2,3.97,0.73C9.32,0.82,10.75,0.66,12,1.02c0.61,0.18,1.17,0.48,1.64,0.87c0.48,0.4,0.87,0.91,1.14,1.48
	c0.65,1.41,0.54,3.19-0.9,4.88c-0.68,0.8-1.57,1.66-2.47,2.49c-0.87,0.79-1.79,1.58-2.54,2.22l-0.83,0.71L7.2,12.96
	c-0.76-0.64-1.68-1.43-2.54-2.22C3.75,9.92,2.87,9.05,2.19,8.26L2.19,8.26z M8.03,11.99c1.47-1.26,3.6-3.07,4.87-4.57
	c3.06-3.58-1.86-7.4-4.87-3.94C5.02,0.03,0.1,3.84,3.16,7.42C4.43,8.92,6.56,10.73,8.03,11.99z"/>
</svg>
