<svg width="26" height="27" viewBox="0 0 26 27" fill="none" xmlns="http://www.w3.org/2000/svg">
<path d="M12.5296 0C12.7742 0 13.0188 0 13.2634 0C13.2914 0.0139777 13.3194 0.0419332 13.3543 0.0419332C14.0043 0.160744 14.5214 0.482232 14.9338 0.992419C15.2693 1.41874 15.6187 1.83108 15.9542 2.2574C16.2267 2.61384 16.5692 2.71867 16.9955 2.59287C17.5057 2.4461 18.0229 2.3203 18.5331 2.18053C20.1265 1.74023 21.6431 2.74662 21.8248 4.38202C21.8877 4.96908 21.9017 5.57013 21.9227 6.15719C21.9366 6.61147 22.1393 6.91199 22.5726 7.06574C23.0828 7.24745 23.586 7.44314 24.0892 7.64582C25.7106 8.28879 26.2767 10.057 25.3262 11.5316C25.0257 11.9929 24.7322 12.4542 24.4247 12.9154C24.201 13.2509 24.208 13.5794 24.4247 13.9148C24.7252 14.3691 25.0187 14.8234 25.3123 15.2777C26.2837 16.7873 25.7106 18.5484 24.0333 19.2054C23.5511 19.3941 23.0758 19.5828 22.5936 19.7505C22.1323 19.9113 21.9296 20.2188 21.9157 20.694C21.9017 21.1972 21.8807 21.7074 21.8458 22.2106C21.7409 24.0137 20.2174 25.104 18.4771 24.6288C17.9739 24.489 17.4638 24.3562 16.9606 24.2164C16.5552 24.1046 16.2267 24.2094 15.9612 24.5449C15.6117 24.9922 15.2553 25.4325 14.8919 25.8658C13.8295 27.1448 11.9565 27.1448 10.8942 25.8658C10.5378 25.4325 10.1814 24.9992 9.8389 24.5589C9.56634 24.2094 9.23087 24.0976 8.79756 24.2234C8.2105 24.3911 7.62343 24.5589 7.02938 24.6917C5.58967 25.0131 4.14298 23.9858 3.97525 22.5181C3.90536 21.9031 3.89138 21.2811 3.87041 20.6591C3.84945 20.2048 3.65376 19.9043 3.22045 19.7505C2.71026 19.5688 2.20706 19.3661 1.70386 19.1705C0.110404 18.5624 -0.48365 16.7663 0.431891 15.3266C0.732413 14.8583 1.03992 14.3901 1.34743 13.9218C1.57807 13.5724 1.57807 13.2229 1.34743 12.8735C1.02595 12.3913 0.711446 11.916 0.403936 11.4268C-0.469672 10.022 0.13137 8.23288 1.67591 7.63883C2.17911 7.44314 2.68231 7.24046 3.19249 7.06574C3.64677 6.905 3.85644 6.5905 3.87041 6.12225C3.88439 5.61905 3.91235 5.10886 3.9403 4.60566C4.03815 2.81651 5.55473 1.71926 7.28098 2.18053C7.78418 2.31331 8.29436 2.4461 8.79756 2.58588C9.22388 2.71168 9.56634 2.59986 9.8389 2.25041C10.1883 1.80313 10.5518 1.36283 10.9082 0.92253C11.1808 0.587065 11.5232 0.328477 11.9286 0.174722C12.1243 0.111822 12.3269 0.0628998 12.5296 0ZM17.5756 9.55378C17.4847 9.36508 17.4218 9.14843 17.289 8.98768C16.9536 8.58233 16.3875 8.60329 15.9751 9.00865C14.9827 10.0011 13.9903 10.9935 12.9909 11.9859C11.3136 13.6632 9.62924 15.3406 7.9589 17.0319C7.79117 17.1996 7.66537 17.4442 7.60946 17.6748C7.53258 18.0243 7.76321 18.3737 8.0847 18.5275C8.42017 18.6952 8.81154 18.6323 9.09808 18.3458C9.65719 17.7937 10.2093 17.2345 10.7684 16.6824C12.9 14.5508 15.0246 12.4262 17.1562 10.2946C17.3659 10.0989 17.5267 9.88225 17.5756 9.55378ZM9.35667 8.70114C8.39221 8.70114 7.60247 9.4769 7.60247 10.4414C7.60247 11.4058 8.38522 12.1956 9.34968 12.2026C10.3072 12.2095 11.1039 11.4128 11.1109 10.4553C11.1109 9.49787 10.3211 8.70114 9.35667 8.70114ZM17.5197 16.8711C17.5197 15.8997 16.7369 15.1239 15.7725 15.1309C14.801 15.1379 14.0252 15.9136 14.0322 16.8851C14.0322 17.8566 14.815 18.6253 15.7864 18.6253C16.7509 18.6183 17.5197 17.8426 17.5197 16.8711Z" fill="#011689"/>
<path d="M17.9787 9.09459C17.934 9.45343 17.7554 9.6777 17.5395 9.90197C15.269 12.1746 12.9985 14.4547 10.7355 16.7274C10.1474 17.3179 9.55934 17.916 8.95636 18.5066C8.65115 18.8131 8.23428 18.8729 7.87696 18.701C7.53453 18.529 7.28887 18.1552 7.37076 17.7889C7.42287 17.5422 7.5643 17.2806 7.74296 17.1011C9.52212 15.292 11.3087 13.5053 13.1028 11.7036C14.1598 10.6421 15.2169 9.57304 16.274 8.51148C16.7132 8.07041 17.3087 8.05546 17.6735 8.48905C17.8149 8.661 17.8819 8.89275 17.9787 9.09459Z" fill="#F4B83F"/>
<path d="M9.402 8.17217C10.5193 8.17217 11.4491 9.10191 11.4409 10.2192C11.4328 11.3365 10.503 12.2663 9.38569 12.2581C8.26836 12.25 7.35492 11.3284 7.35492 10.2029C7.35492 9.07744 8.27651 8.16402 9.402 8.17217Z" fill="#F4B83F"/>
<path d="M15.9397 14.7099C17.057 14.7099 17.9868 15.6396 17.9786 16.7569C17.9705 17.8743 17.0407 18.804 15.9234 18.7958C14.806 18.7877 13.8926 17.8661 13.8926 16.7406C13.8926 15.6152 14.8142 14.7017 15.9397 14.7099Z" fill="#F4B83F"/>
</svg>
