<?xml version="1.0" encoding="utf-8"?>
<!-- Generator: Adobe Illustrator 24.0.0, SVG Export Plug-In . SVG Version: 6.00 Build 0)  -->
<svg version="1.1" id="Capa_1" xmlns="http://www.w3.org/2000/svg" xmlns:xlink="http://www.w3.org/1999/xlink" x="0px" y="0px"
	 viewBox="0 0 64 66" style="enable-background:new 0 0 64 66;" xml:space="preserve">
<style type="text/css">
	.st0{fill:#FFFFFF;}
</style>
<g id="Capa_x0020_1">
	<path class="st0" d="M13.6,16.1l-0.1,0.1c-0.2,0.6-0.4,1.2-0.5,1.8c-0.1,0.3-0.1,0.8-0.1,1.3v0c0,0.5,0,1,0,1.4
		c0.1,2.4,0.8,4.9,2,7.6c1.2,2.7,2.9,5.6,5.2,8.6c0.6,0.8,1,1.4,1.5,2c0.5,0.7,1.1,1.3,1.9,2.2c0.8,0.8,1.3,1.4,1.8,2
		c0.5,0.5,0.9,0.9,1.5,1.6c3.4,3.3,6.9,5.9,10.2,7.4c3.2,1.5,6.2,2.2,8.8,1.8c0.4,0,0.8-0.1,1.1-0.2L43,49.3h0l-0.9-1l-3.3-3.8
		c-0.8,0.3-1.6,0.2-2.5-0.1c-0.8-0.3-1.8-1-3-2c-0.6-0.5-1.3-1.1-1.9-1.7s-1.4-1.3-2.1-2l0,0c-0.4-0.4-1.2-1.3-2-2.2
		s-1.6-1.8-1.9-2.2l0,0c-0.7-1-1.4-1.8-1.8-2.5c-0.5-0.7-0.9-1.4-1.2-1.9l0,0c-0.5-1-0.8-1.8-0.8-2.6c0-0.6,0.1-1.2,0.3-1.7l-4.4-5
		v0l-0.1-0.1l-0.1-0.1l-0.1-0.1L17,20L17,19.9l-0.1-0.1l-0.1-0.1l-0.1-0.1l-0.1-0.1l-0.1-0.1l-0.1-0.1l-0.1-0.1l-0.1-0.1l-0.1-0.1
		L16.2,19l-0.1-0.1L16,18.8l-0.1-0.2l-0.1-0.1C14.9,17.5,14.1,16.7,13.6,16.1z M49.2,52l0.6-0.6l0,0c0.8-0.7,1.3-1.1,1.5-1.4
		c0.1,0,0.1,0,0.1,0l0,0c0,0,0-0.1,0-0.1l0,0c0-0.1,0-0.1,0-0.1v0c0,0-0.1-0.1-0.5-0.6c-0.7-0.7-1.7-1.9-3.5-3.9l-3.9-4.4h-0.1h-0.1
		c0,0,0,0-0.1,0c-0.3,0.2-0.7,0.6-1.6,1.4L41,42.8l4.1,4.6l0,0L49.2,52z M39.1,40.7l0.6-0.5c0.9-0.8,1.4-1.3,1.8-1.5
		c0.5-0.4,0.8-0.5,1.2-0.6h0c0.3,0,0.6,0,0.9,0s0.6,0.1,0.9,0.2l0,0l0.2,0.1l0.3,0.1l0.2,0.2l4.1,4.7c1.9,2.2,3,3.3,3.5,4
		c0.7,0.8,0.9,1,1,1.3l0,0c0.2,0.3,0.3,0.7,0.3,1.1l0,0c0,0.4,0,0.8-0.1,1.2l0,0c-0.1,0.4-0.3,0.7-0.7,1.1c-0.2,0.2-0.4,0.4-0.7,0.7
		c-1.5,1.4-2.6,2.6-4.5,3.4c-0.7,0.2-1.4,0.4-2.1,0.5c-3.2,0.5-6.7-0.3-10.4-2c-3.6-1.7-7.3-4.4-10.9-8c-0.7-0.7-1.1-1.1-1.6-1.6
		c-0.5-0.5-1-1.1-1.8-2c-0.9-1-1.5-1.7-2-2.2c-0.5-0.6-1-1.2-1.6-2.1c-2.4-3.2-4.2-6.2-5.5-9.2c-1.3-3-2-5.8-2.2-8.5
		c0-0.5,0-1.1,0-1.7l0,0c0.1-0.6,0.1-1.2,0.2-1.6c0.5-2.9,1.8-4.5,3.9-6.5l0.1,0l1.7-1.5l0.2-0.2l0.3-0.1l0.3-0.1l0,0
		C16.9,9,17.3,9,17.7,9l0,0c0.4,0,0.8,0.1,1.1,0.3l0,0l0.3,0.1l0.3,0.1l0.2,0.3l4.3,4.8l0.6,0.7c1.9,2.1,2.9,3.2,3.3,3.8
		c0.7,0.9,0.8,1.1,0.8,1.5l0,0l0,0.1l0,0c0,0.3,0,0.6,0,1c-0.1,0.3-0.1,0.7-0.3,1c-0.1,0.3-0.2,0.4-0.6,0.8
		c-0.2,0.2-0.7,0.6-1.6,1.4l-1.5,1.4l-0.1,0.1l-0.2,0.3l0,0c-0.1,0.1-0.1,0.3-0.1,0.5c0,0.4,0.2,0.9,0.5,1.5v0
		c0.2,0.4,0.5,0.9,1,1.6c0.5,0.6,1,1.5,1.8,2.4l0,0c0.3,0.4,1,1.2,1.8,2.1c0.8,0.8,1.5,1.7,1.9,2.1l0,0c0.6,0.6,1.3,1.3,2,1.9
		c0.7,0.7,1.4,1.2,1.8,1.6c1,0.8,1.7,1.3,2.3,1.6c0.3,0.1,0.5,0.1,0.6,0.1c0,0,0.1,0,0.1,0l0,0l0,0l0,0l0,0l0,0l0,0l0,0l0,0l0.1-0.1
		l0,0L39.1,40.7L39.1,40.7z M23.7,23.2l0.7-0.6c0.8-0.7,1.3-1.1,1.5-1.4c0.1-0.1,0,0,0,0c0,0,0,0,0-0.1s0-0.1,0-0.1l0-0.1V21l0,0
		c0-0.1,0,0.1-0.2-0.2c-0.5-0.6-1.4-1.6-3.3-3.7l-0.6-0.7l-4-4.5c0,0-0.1,0-0.1,0l0,0c0,0-0.1,0-0.1,0L16,13.1l-0.7,0.7l1.9,2.1
		l0.1,0.1l0.1,0.1l0.1,0.1l0.1,0.1l0.1,0.1l0.1,0.1l0.1,0.1l0.1,0.1l0.1,0.1l0.1,0.1l0.1,0.1l0.1,0.1l0.1,0.1l0.1,0.1l0.1,0.1
		l0.1,0.1l0.1,0.1l0.1,0.1l0.1,0.1l0.1,0.1l0.1,0.1l0.1,0.1l0.1,0.1l0,0L23.7,23.2z"/>
</g>
</svg>
